<?xml version="1.0" encoding="UTF-8" standalone="no"?>
<svg
   xmlns:osb="http://www.openswatchbook.org/uri/2009/osb"
   xmlns:dc="http://purl.org/dc/elements/1.1/"
   xmlns:cc="http://creativecommons.org/ns#"
   xmlns:rdf="http://www.w3.org/1999/02/22-rdf-syntax-ns#"
   xmlns:svg="http://www.w3.org/2000/svg"
   xmlns="http://www.w3.org/2000/svg"
   xmlns:xlink="http://www.w3.org/1999/xlink"
   xmlns:sodipodi="http://sodipodi.sourceforge.net/DTD/sodipodi-0.dtd"
   xmlns:inkscape="http://www.inkscape.org/namespaces/inkscape"
   width="3423.9761"
   height="1200"
   version="1.1"
   id="svg10"
   sodipodi:docname="ADCL.svg"
   inkscape:version="0.92.5 (2060ec1f9f, 2020-04-08)">
  <metadata
     id="metadata16">
    <rdf:RDF>
      <cc:Work
         rdf:about="">
        <dc:format>image/svg+xml</dc:format>
        <dc:type
           rdf:resource="http://purl.org/dc/dcmitype/StillImage" />
        <dc:title></dc:title>
      </cc:Work>
    </rdf:RDF>
  </metadata>
  <defs
     id="defs14">
    <marker
       inkscape:isstock="true"
       style="overflow:visible"
       id="marker1098"
       refX="0"
       refY="0"
       orient="auto"
       inkscape:stockid="DotS">
      <path
         transform="matrix(0.2,0,0,0.2,1.48,0.2)"
         style="fill:#ffffff;fill-opacity:1;fill-rule:evenodd;stroke:#ffffff;stroke-width:1.00000003pt;stroke-opacity:1"
         d="m -2.5,-1 c 0,2.76 -2.24,5 -5,5 -2.76,0 -5,-2.24 -5,-5 0,-2.76 2.24,-5 5,-5 2.76,0 5,2.24 5,5 z"
         id="path1096"
         inkscape:connector-curvature="0" />
    </marker>
    <marker
       inkscape:isstock="true"
       style="overflow:visible"
       id="marker1010"
       refX="0"
       refY="0"
       orient="auto"
       inkscape:stockid="DotS">
      <path
         transform="matrix(0.2,0,0,0.2,1.48,0.2)"
         style="fill:#002868;fill-opacity:1;fill-rule:evenodd;stroke:#002868;stroke-width:1.00000003pt;stroke-opacity:1"
         d="m -2.5,-1 c 0,2.76 -2.24,5 -5,5 -2.76,0 -5,-2.24 -5,-5 0,-2.76 2.24,-5 5,-5 2.76,0 5,2.24 5,5 z"
         id="path1008"
         inkscape:connector-curvature="0" />
    </marker>
    <marker
       inkscape:isstock="true"
       style="overflow:visible"
       id="marker9779"
       refX="0"
       refY="0"
       orient="auto"
       inkscape:stockid="DotS">
      <path
         transform="matrix(0.2,0,0,0.2,1.48,0.2)"
         style="fill:#002868;fill-opacity:1;fill-rule:evenodd;stroke:#002868;stroke-width:1.00000003pt;stroke-opacity:1"
         d="m -2.5,-1 c 0,2.76 -2.24,5 -5,5 -2.76,0 -5,-2.24 -5,-5 0,-2.76 2.24,-5 5,-5 2.76,0 5,2.24 5,5 z"
         id="path9777"
         inkscape:connector-curvature="0" />
    </marker>
    <marker
       inkscape:isstock="true"
       style="overflow:visible"
       id="marker9691"
       refX="0"
       refY="0"
       orient="auto"
       inkscape:stockid="DotS">
      <path
         transform="matrix(0.2,0,0,0.2,1.48,0.2)"
         style="fill:#002868;fill-opacity:1;fill-rule:evenodd;stroke:#002868;stroke-width:1.00000003pt;stroke-opacity:1"
         d="m -2.5,-1 c 0,2.76 -2.24,5 -5,5 -2.76,0 -5,-2.24 -5,-5 0,-2.76 2.24,-5 5,-5 2.76,0 5,2.24 5,5 z"
         id="path9689"
         inkscape:connector-curvature="0" />
    </marker>
    <marker
       inkscape:isstock="true"
       style="overflow:visible"
       id="marker9609"
       refX="0"
       refY="0"
       orient="auto"
       inkscape:stockid="DotS">
      <path
         transform="matrix(0.2,0,0,0.2,1.48,0.2)"
         style="fill:#002868;fill-opacity:1;fill-rule:evenodd;stroke:#002868;stroke-width:1.00000003pt;stroke-opacity:1"
         d="m -2.5,-1 c 0,2.76 -2.24,5 -5,5 -2.76,0 -5,-2.24 -5,-5 0,-2.76 2.24,-5 5,-5 2.76,0 5,2.24 5,5 z"
         id="path9607"
         inkscape:connector-curvature="0" />
    </marker>
    <marker
       inkscape:stockid="DotS"
       orient="auto"
       refY="0"
       refX="0"
       id="marker5816"
       style="overflow:visible"
       inkscape:isstock="true"
       inkscape:collect="always">
      <path
         id="path5814"
         d="m -2.5,-1 c 0,2.76 -2.24,5 -5,5 -2.76,0 -5,-2.24 -5,-5 0,-2.76 2.24,-5 5,-5 2.76,0 5,2.24 5,5 z"
         style="fill:#ffffff;fill-opacity:1;fill-rule:evenodd;stroke:#ffffff;stroke-width:1.00000003pt;stroke-opacity:1"
         transform="matrix(0.2,0,0,0.2,1.48,0.2)"
         inkscape:connector-curvature="0" />
    </marker>
    <marker
       inkscape:stockid="DotS"
       orient="auto"
       refY="0"
       refX="0"
       id="marker5752"
       style="overflow:visible"
       inkscape:isstock="true"
       inkscape:collect="always">
      <path
         id="path5750"
         d="m -2.5,-1 c 0,2.76 -2.24,5 -5,5 -2.76,0 -5,-2.24 -5,-5 0,-2.76 2.24,-5 5,-5 2.76,0 5,2.24 5,5 z"
         style="fill:#ffffff;fill-opacity:1;fill-rule:evenodd;stroke:#ffffff;stroke-width:1.00000003pt;stroke-opacity:1"
         transform="matrix(0.2,0,0,0.2,1.48,0.2)"
         inkscape:connector-curvature="0" />
    </marker>
    <marker
       inkscape:stockid="DotS"
       orient="auto"
       refY="0"
       refX="0"
       id="marker5694"
       style="overflow:visible"
       inkscape:isstock="true"
       inkscape:collect="always">
      <path
         id="path5692"
         d="m -2.5,-1 c 0,2.76 -2.24,5 -5,5 -2.76,0 -5,-2.24 -5,-5 0,-2.76 2.24,-5 5,-5 2.76,0 5,2.24 5,5 z"
         style="fill:#002868;fill-opacity:1;fill-rule:evenodd;stroke:#002868;stroke-width:1.00000003pt;stroke-opacity:1"
         transform="matrix(0.2,0,0,0.2,1.48,0.2)"
         inkscape:connector-curvature="0" />
    </marker>
    <marker
       inkscape:stockid="DotS"
       orient="auto"
       refY="0"
       refX="0"
       id="marker5642"
       style="overflow:visible"
       inkscape:isstock="true"
       inkscape:collect="always">
      <path
         id="path5640"
         d="m -2.5,-1 c 0,2.76 -2.24,5 -5,5 -2.76,0 -5,-2.24 -5,-5 0,-2.76 2.24,-5 5,-5 2.76,0 5,2.24 5,5 z"
         style="fill:#ffffff;fill-opacity:1;fill-rule:evenodd;stroke:#ffffff;stroke-width:1.00000003pt;stroke-opacity:1"
         transform="matrix(0.2,0,0,0.2,1.48,0.2)"
         inkscape:connector-curvature="0" />
    </marker>
    <marker
       inkscape:stockid="DotS"
       orient="auto"
       refY="0"
       refX="0"
       id="DotS"
       style="overflow:visible"
       inkscape:isstock="true"
       inkscape:collect="always">
      <path
         id="path5195"
         d="m -2.5,-1 c 0,2.76 -2.24,5 -5,5 -2.76,0 -5,-2.24 -5,-5 0,-2.76 2.24,-5 5,-5 2.76,0 5,2.24 5,5 z"
         style="fill:#ffffff;fill-opacity:1;fill-rule:evenodd;stroke:#ffffff;stroke-width:1.00000003pt;stroke-opacity:1"
         transform="matrix(0.2,0,0,0.2,1.48,0.2)"
         inkscape:connector-curvature="0" />
    </marker>
    <linearGradient
       id="linearGradient5075"
       osb:paint="solid">
      <stop
         style="stop-color:#002868;stop-opacity:1;"
         offset="0"
         id="stop5073" />
    </linearGradient>
    <linearGradient
       id="linearGradient4951"
       osb:paint="solid">
      <stop
         style="stop-color:#ffffff;stop-opacity:1;"
         offset="0"
         id="stop4949" />
    </linearGradient>
    <linearGradient
       id="linearGradient4551"
       osb:paint="solid">
      <stop
         style="stop-color:#000000;stop-opacity:1;"
         offset="0"
         id="stop4549" />
    </linearGradient>
    <linearGradient
       id="linearGradient4545"
       osb:paint="solid">
      <stop
         style="stop-color:#bf0a30;stop-opacity:1;"
         offset="0"
         id="stop4543" />
    </linearGradient>
    <linearGradient
       inkscape:collect="always"
       xlink:href="#linearGradient4545"
       id="linearGradient4547"
       x1="360.00009"
       y1="600"
       x2="1130.8101"
       y2="600"
       gradientUnits="userSpaceOnUse"
       gradientTransform="translate(-50.545069)" />
    <linearGradient
       inkscape:collect="always"
       xlink:href="#linearGradient4545"
       id="linearGradient4612"
       gradientUnits="userSpaceOnUse"
       x1="-782.54559"
       y1="582.54364"
       x2="273.45447"
       y2="582.54364" />
    <linearGradient
       inkscape:collect="always"
       xlink:href="#linearGradient4545"
       id="linearGradient4616"
       gradientUnits="userSpaceOnUse"
       x1="-782.54559"
       y1="582.54364"
       x2="273.45447"
       y2="582.54364"
       gradientTransform="matrix(1.5968365,0,0,1.5968365,2372.4087,-328.85348)" />
    <linearGradient
       inkscape:collect="always"
       xlink:href="#linearGradient4545"
       id="linearGradient867"
       gradientUnits="userSpaceOnUse"
       x1="-782.54559"
       y1="582.54364"
       x2="273.45447"
       y2="582.54364"
       gradientTransform="matrix(1.5968365,0,0,1.5968365,-205.68929,-328.85348)" />
    <linearGradient
       inkscape:collect="always"
       xlink:href="#linearGradient4545"
       id="linearGradient869"
       gradientUnits="userSpaceOnUse"
       x1="-782.54559"
       y1="582.54364"
       x2="273.45447"
       y2="582.54364"
       gradientTransform="matrix(1.5968365,0,0,1.5968365,-205.68929,-328.85348)" />
    <linearGradient
       inkscape:collect="always"
       xlink:href="#linearGradient4951"
       id="linearGradient4953"
       x1="-1541.226"
       y1="601.37347"
       x2="-680.88977"
       y2="601.37347"
       gradientUnits="userSpaceOnUse"
       gradientTransform="translate(-16.545069)" />
    <linearGradient
       inkscape:collect="always"
       xlink:href="#linearGradient4545"
       id="linearGradient4960"
       gradientUnits="userSpaceOnUse"
       gradientTransform="matrix(1.5968365,0,0,1.5968365,-205.68929,-328.85348)"
       x1="-782.54559"
       y1="582.54364"
       x2="273.45447"
       y2="582.54364" />
    <linearGradient
       inkscape:collect="always"
       xlink:href="#linearGradient4951"
       id="linearGradient4975"
       x1="-771.54559"
       y1="582.54364"
       x2="-394.35818"
       y2="582.54364"
       gradientUnits="userSpaceOnUse"
       gradientTransform="matrix(1.5968365,0,0,1.5968365,2372.4087,-328.85348)" />
    <linearGradient
       inkscape:collect="always"
       xlink:href="#linearGradient4951"
       id="linearGradient4984"
       x1="-577.51434"
       y1="601.37347"
       x2="256.56662"
       y2="601.37347"
       gradientUnits="userSpaceOnUse"
       gradientTransform="translate(-16.545069)" />
    <linearGradient
       inkscape:collect="always"
       xlink:href="#linearGradient4951"
       id="linearGradient4992"
       x1="360.00009"
       y1="600"
       x2="1130.8101"
       y2="600"
       gradientUnits="userSpaceOnUse"
       gradientTransform="translate(-50.545069)" />
    <style
       id="style6"
       type="text/css">
   
    .str0 {stroke:#1F1A17;stroke-width:0.9}
    .fil0 {fill:#0093DD}
    .fil1 {fill:white}
   
  </style>
    <linearGradient
       inkscape:collect="always"
       xlink:href="#linearGradient4545"
       id="linearGradient5083"
       gradientUnits="userSpaceOnUse"
       x1="-782.54559"
       y1="582.54364"
       x2="273.45447"
       y2="582.54364"
       gradientTransform="matrix(1.5968365,0,0,1.5968365,2372.4087,-328.85348)" />
    <linearGradient
       inkscape:collect="always"
       xlink:href="#linearGradient4545"
       id="linearGradient5085"
       gradientUnits="userSpaceOnUse"
       gradientTransform="matrix(1.5968365,0,0,1.5968365,-205.68929,-328.85348)"
       x1="-782.54559"
       y1="582.54364"
       x2="273.45447"
       y2="582.54364" />
    <linearGradient
       inkscape:collect="always"
       xlink:href="#linearGradient4545"
       id="linearGradient5087"
       gradientUnits="userSpaceOnUse"
       x1="360.00009"
       y1="600"
       x2="1130.8101"
       y2="600"
       gradientTransform="translate(-50.545069)" />
    <linearGradient
       inkscape:collect="always"
       xlink:href="#linearGradient5075"
       id="linearGradient5900"
       x1="-559"
       y1="582.98157"
       x2="528.70001"
       y2="582.98157"
       gradientUnits="userSpaceOnUse" />
    <linearGradient
       inkscape:collect="always"
       xlink:href="#linearGradient5075"
       id="linearGradient5902"
       gradientUnits="userSpaceOnUse"
       x1="-559"
       y1="582.98157"
       x2="528.70001"
       y2="582.98157" />
    <linearGradient
       inkscape:collect="always"
       xlink:href="#linearGradient5075"
       id="linearGradient5904"
       gradientUnits="userSpaceOnUse"
       x1="-559"
       y1="582.98157"
       x2="528.70001"
       y2="582.98157" />
    <linearGradient
       inkscape:collect="always"
       xlink:href="#linearGradient5075"
       id="linearGradient5906"
       gradientUnits="userSpaceOnUse"
       x1="-559"
       y1="582.98157"
       x2="528.70001"
       y2="582.98157" />
    <linearGradient
       inkscape:collect="always"
       xlink:href="#linearGradient5075"
       id="linearGradient5908"
       gradientUnits="userSpaceOnUse"
       x1="-559"
       y1="582.98157"
       x2="528.70001"
       y2="582.98157" />
    <linearGradient
       inkscape:collect="always"
       xlink:href="#linearGradient5075"
       id="linearGradient5910"
       gradientUnits="userSpaceOnUse"
       x1="-559"
       y1="582.98157"
       x2="528.70001"
       y2="582.98157" />
    <linearGradient
       inkscape:collect="always"
       xlink:href="#linearGradient5075"
       id="linearGradient5912"
       gradientUnits="userSpaceOnUse"
       x1="-559"
       y1="582.98157"
       x2="528.70001"
       y2="582.98157" />
    <linearGradient
       inkscape:collect="always"
       xlink:href="#linearGradient5075"
       id="linearGradient8375"
       x1="-1697.1989"
       y1="1124.6097"
       x2="-954.71967"
       y2="1124.6097"
       gradientUnits="userSpaceOnUse"
       gradientTransform="matrix(0,0.42641755,-0.42641755,0,-553.85022,1172.4235)" />
    <linearGradient
       inkscape:collect="always"
       xlink:href="#linearGradient4951"
       id="linearGradient8381"
       x1="-1697.1989"
       y1="1124.6097"
       x2="-954.71967"
       y2="1124.6097"
       gradientUnits="userSpaceOnUse"
       gradientTransform="matrix(0,0.42641755,-0.42641755,0,-553.85022,1172.4235)" />
    <linearGradient
       inkscape:collect="always"
       xlink:href="#linearGradient4951"
       id="linearGradient9605"
       gradientUnits="userSpaceOnUse"
       x1="-559"
       y1="582.98157"
       x2="528.70001"
       y2="582.98157" />
    <linearGradient
       inkscape:collect="always"
       xlink:href="#linearGradient4951"
       id="linearGradient1032"
       gradientUnits="userSpaceOnUse"
       x1="-559"
       y1="582.98157"
       x2="528.70001"
       y2="582.98157" />
    <linearGradient
       inkscape:collect="always"
       xlink:href="#linearGradient4951"
       id="linearGradient1034"
       gradientUnits="userSpaceOnUse"
       x1="-559"
       y1="582.98157"
       x2="528.70001"
       y2="582.98157" />
    <linearGradient
       inkscape:collect="always"
       xlink:href="#linearGradient4951"
       id="linearGradient1036"
       gradientUnits="userSpaceOnUse"
       x1="-559"
       y1="582.98157"
       x2="528.70001"
       y2="582.98157" />
    <linearGradient
       inkscape:collect="always"
       xlink:href="#linearGradient4951"
       id="linearGradient1038"
       gradientUnits="userSpaceOnUse"
       x1="-559"
       y1="582.98157"
       x2="528.70001"
       y2="582.98157" />
    <linearGradient
       inkscape:collect="always"
       xlink:href="#linearGradient4951"
       id="linearGradient1040"
       gradientUnits="userSpaceOnUse"
       x1="-559"
       y1="582.98157"
       x2="528.70001"
       y2="582.98157" />
    <linearGradient
       inkscape:collect="always"
       xlink:href="#linearGradient4951"
       id="linearGradient1042"
       gradientUnits="userSpaceOnUse"
       x1="-559"
       y1="582.98157"
       x2="528.70001"
       y2="582.98157" />
  </defs>
  <sodipodi:namedview
     pagecolor="#ffffff"
     bordercolor="#666666"
     borderopacity="1"
     objecttolerance="10"
     gridtolerance="10"
     guidetolerance="10"
     inkscape:pageopacity="0"
     inkscape:pageshadow="2"
     inkscape:window-width="1920"
     inkscape:window-height="1043"
     id="namedview12"
     showgrid="false"
     inkscape:snap-global="true"
     inkscape:snap-bbox="true"
     inkscape:bbox-paths="true"
     inkscape:zoom="0.70710678"
     inkscape:cx="2155.683"
     inkscape:cy="668.94863"
     inkscape:window-x="0"
     inkscape:window-y="1080"
     inkscape:window-maximized="1"
     inkscape:current-layer="layer4"
     showguides="false"
     inkscape:guide-bbox="true"
     inkscape:object-paths="true"
     inkscape:snap-intersection-paths="true"
     inkscape:snap-to-guides="true"
     fit-margin-top="0"
     fit-margin-left="0"
     fit-margin-right="0"
     fit-margin-bottom="0">
    <sodipodi:guide
       position="1290.3412,400"
       orientation="1,0"
       id="guide865"
       inkscape:locked="false" />
    <sodipodi:guide
       position="1368.9361,800"
       orientation="1,0"
       id="guide875"
       inkscape:locked="false" />
    <sodipodi:guide
       position="1665.494,654.71919"
       orientation="0.98123792,-0.19280081"
       id="guide877"
       inkscape:locked="false" />
    <sodipodi:guide
       position="566.04863,658.04009"
       orientation="0.8795854,-0.47574104"
       id="guide4930"
       inkscape:locked="false" />
    <sodipodi:guide
       position="667.76453,624.51691"
       orientation="0.98797106,0.15463889"
       id="guide4932"
       inkscape:locked="false" />
    <sodipodi:guide
       position="565.97693,317"
       orientation="0,1"
       id="guide4934"
       inkscape:locked="false" />
    <sodipodi:guide
       position="205.52073,494.97474"
       orientation="0,1"
       id="guide4938"
       inkscape:locked="false" />
    <sodipodi:guide
       position="3036.9846,463.11438"
       orientation="0.98157285,-0.1910883"
       id="guide4943"
       inkscape:locked="false" />
    <sodipodi:guide
       position="3360.3217,278.92585"
       orientation="0.9826035,-0.18571583"
       id="guide4945"
       inkscape:locked="false" />
    <sodipodi:guide
       position="403.82233,358.10412"
       orientation="0,1"
       id="guide9565"
       inkscape:locked="false" />
  </sodipodi:namedview>
  <!-- Created per specification at http://www.50states.com/flag/coflag.htm by Robert Fleming -->
  <rect
     width="3423.9758"
     height="1200"
     id="rect2"
     x="0"
     y="0"
     style="fill:#002868" />
  <rect
     width="3423.9761"
     height="400"
     y="400"
     id="rect4"
     x="0"
     style="fill:#ffffff" />
  <!-- 76 + 180*sqrt(55)/36 ~= 113.1 -->
  <flowRoot
     xml:space="preserve"
     id="flowRoot3730"
     style="font-style:normal;font-weight:normal;font-size:40px;line-height:1.25;font-family:sans-serif;letter-spacing:0px;word-spacing:0px;fill:#000000;fill-opacity:1;stroke:none"
     transform="translate(1623.9769)"><flowRegion
       id="flowRegion3732"><rect
         id="rect3734"
         width="399.42365"
         height="137.46397"
         x="-977.80981"
         y="217.00288" /></flowRegion><flowPara
       id="flowPara3736" /></flowRoot>  <g
     aria-label="L"
     transform="matrix(1.5968365,0,0,1.5968365,4012.9307,-328.85348)"
     style="font-style:normal;font-weight:normal;font-size:40px;line-height:1.25;font-family:sans-serif;letter-spacing:0px;word-spacing:0px;fill:url(#linearGradient4612);fill-opacity:1;stroke:none"
     id="flowRoot4602" />
  <flowRoot
     xml:space="preserve"
     id="flowRoot4647"
     style="font-style:normal;font-weight:normal;font-size:40px;line-height:1.25;font-family:sans-serif;letter-spacing:0px;word-spacing:0px;fill:#000000;fill-opacity:1;stroke:none"
     transform="translate(1623.9769)"><flowRegion
       id="flowRegion4649"><rect
         id="rect4651"
         width="137.54959"
         height="71.525787"
         x="-856.47546"
         y="572.77386" /></flowRegion><flowPara
       id="flowPara4653" /></flowRoot>  <g
     inkscape:groupmode="layer"
     id="layer1"
     inkscape:label="Shadow"
     style="display:inline"
     transform="translate(1623.9769)" />
  <g
     inkscape:groupmode="layer"
     id="layer2"
     inkscape:label="Letters"
     transform="translate(1623.9769)" />
  <g
     inkscape:groupmode="layer"
     id="layer3"
     inkscape:label="Sun"
     transform="translate(1623.9769)" />
  <g
     inkscape:groupmode="layer"
     id="layer4"
     inkscape:label="Plane"
     style="display:inline"
     transform="translate(1623.9769)">
    <path
       sodipodi:nodetypes="ccccccccc"
       d="m -931.05809,841.89588 h -305.64161 l -84.8212,156.82373 h -236.2501 l 449.6118,-794.69232 h 270.20274 l 140.52161,794.69232 h -209.07693 z"
       style="font-style:italic;font-weight:bold;font-size:682.66668701px;line-height:1.25;font-family:sans-serif;letter-spacing:0px;word-spacing:0px;display:inline;fill:url(#linearGradient4960);fill-opacity:1;stroke:url(#linearGradient4953);stroke-width:35;stroke-miterlimit:4;stroke-dasharray:none"
       id="path4947"
       inkscape:connector-curvature="0" />
    <path
       sodipodi:nodetypes="ccccccc"
       inkscape:connector-curvature="0"
       id="path4968"
       style="font-style:italic;font-weight:bold;font-size:682.66668701px;line-height:1.25;font-family:sans-serif;letter-spacing:0px;word-spacing:0px;display:inline;fill:url(#linearGradient5083);fill-opacity:1;stroke:url(#linearGradient4975);stroke-width:35;stroke-miterlimit:4;stroke-dasharray:none"
       d="m 1295.2697,204.02729 h 216.9274 L 1396.1758,800 h 346.5074 l -37.5588,198.71961 h -564.7478 z" />
    <path
       sodipodi:nodetypes="cccscscccscccscccscc"
       d="m -271.58586,400 -78.59495,400 h 73.45448 c 92.00966,0 156.70756,-9.34934 203.482524,-44.41918 C -26.468845,720.51098 2.383171,659.72063 22.701049,556.8386 36.08078,488.22046 15.717791,447.90732 -29.836916,426.45701 -86.024502,400 -144.6537,399.33509 -199.72822,400 Z M -439.16627,204.02729 h 215.57294 c 102.90725,0 180.08768,6.20992 231.541299,18.62977 51.453628,12.06498 94.213361,32.469 128.279211,61.21206 34.42069,28.74305 60.32493,63.69603 77.71271,104.85893 17.38777,40.80804 26.08166,87.1163 26.08166,138.92478 0,72.03507 -14.90381,139.98934 -44.71142,203.8628 -29.45277,63.51861 -70.97052,116.92392 -124.553248,160.21594 -46.840537,38.67892 -101.310408,66.17999 -163.409611,82.50322 -61.744351,16.32321 -156.844831,24.48482 -285.301461,24.48482 h -216.10522 z"
       style="font-style:italic;font-weight:bold;font-size:682.66668701px;line-height:1.25;font-family:sans-serif;letter-spacing:0px;word-spacing:0px;display:inline;fill:url(#linearGradient5085);fill-opacity:1;stroke:url(#linearGradient4984);stroke-width:35;stroke-miterlimit:4;stroke-dasharray:none"
       id="path4977"
       inkscape:connector-curvature="0" />
    <path
       inkscape:connector-curvature="0"
       style="display:inline;fill:url(#linearGradient5087);fill-opacity:1;stroke:url(#linearGradient4992);stroke-width:35;stroke-miterlimit:4;stroke-dasharray:none"
       id="path4986"
       d="m 1080.2649,750 a 400,400 0 1 1 0,-300 L 709.45493,600 Z" />
    <path
       inkscape:connector-curvature="0"
       id="path860"
       style="font-style:italic;font-weight:bold;font-size:682.66668701px;line-height:1.25;font-family:sans-serif;letter-spacing:0px;word-spacing:0px;fill:url(#linearGradient867);fill-opacity:1;stroke:none;stroke-width:0.2;stroke-miterlimit:4;stroke-dasharray:none"
       d="m -931.05809,841.89588 h -305.64161 l -84.8212,156.82373 h -236.2501 l 449.6118,-794.69232 h 270.20274 l 140.52161,794.69232 H -906.51178 Z M -1162.6705,705.02526 h 210.18919 l -47.17462,-301.39341 z"
       sodipodi:nodetypes="ccccccccccccc" />
    <path
       inkscape:connector-curvature="0"
       id="path862"
       style="font-style:italic;font-weight:bold;font-size:682.66668701px;line-height:1.25;font-family:sans-serif;letter-spacing:0px;word-spacing:0px;fill:url(#linearGradient869);fill-opacity:1;stroke:none;stroke-width:0.2;stroke-miterlimit:4;stroke-dasharray:none"
       d="m -271.58586,400 -78.59495,400 h 73.45448 c 92.00966,0 156.70756,-9.34934 203.482524,-44.41918 C -26.468845,720.51098 2.383171,659.72063 22.701049,556.8386 36.08078,488.22046 15.717791,447.90732 -29.836916,426.45701 -86.024502,400 -144.6537,399.33509 -199.72822,400 Z M -439.16627,204.02729 h 215.57294 c 102.90725,0 180.08768,6.20992 231.541299,18.62977 51.453628,12.06498 94.213361,32.469 128.279211,61.21206 34.42069,28.74305 60.32493,63.69603 77.71271,104.85893 17.38777,40.80804 26.08166,87.1163 26.08166,138.92478 0,72.03507 -14.90381,139.98934 -44.71142,203.8628 -29.45277,63.51861 -70.97052,116.92392 -124.553248,160.21594 -46.840537,38.67892 -101.310408,66.17999 -163.409611,82.50322 -61.744351,16.32321 -156.844831,24.48482 -285.301461,24.48482 h -216.10522 z"
       sodipodi:nodetypes="cccscscccscccscccscc" />
    <path
       d="m 1080.2649,750 a 400,400 0 1 1 0,-300 L 709.45493,600 Z"
       id="path6"
       style="fill:url(#linearGradient4547);fill-opacity:1"
       inkscape:connector-curvature="0" />
    <path
       d="m 1295.2697,204.02729 h 216.9274 L 1396.1758,800 h 346.5074 l -37.5588,198.71961 h -564.7478 z"
       style="font-style:italic;font-weight:bold;font-size:682.66668701px;line-height:1.25;font-family:sans-serif;letter-spacing:0px;word-spacing:0px;fill:url(#linearGradient4616);fill-opacity:1;stroke:none;stroke-width:1.59683645"
       id="path4940"
       inkscape:connector-curvature="0"
       sodipodi:nodetypes="ccccccc" />
    <circle
       style="fill:#ffd700"
       cx="709.45496"
       cy="600"
       r="200"
       id="circle8" />
    <g
       transform="translate(-562.70754,20.887889)"
       id="g9603"
       style="display:inline;stroke:url(#linearGradient9605);stroke-width:45;stroke-miterlimit:4;stroke-dasharray:none">
      <path
         sodipodi:nodetypes="ccc"
         style="fill:none;stroke:url(#linearGradient1032);stroke-width:45;stroke-linecap:butt;stroke-linejoin:miter;stroke-miterlimit:4;stroke-dasharray:none;stroke-opacity:1;marker-end:url(#marker5816)"
         d="m 194.25901,473.09423 50.34582,-43.13112 H 376"
         id="path9591"
         inkscape:connector-curvature="0" />
      <path
         sodipodi:nodetypes="ccc"
         style="fill:none;stroke:url(#linearGradient1034);stroke-width:45;stroke-linecap:butt;stroke-linejoin:miter;stroke-miterlimit:4;stroke-dasharray:none;stroke-opacity:1;marker-end:url(#marker5752)"
         d="m 194.25901,473.09423 40.32338,40.32338 H 463"
         id="path9593"
         inkscape:connector-curvature="0" />
      <path
         sodipodi:nodetypes="ccc"
         style="fill:none;stroke:url(#linearGradient1036);stroke-width:45;stroke-linecap:butt;stroke-linejoin:miter;stroke-miterlimit:4;stroke-dasharray:none;stroke-opacity:1;marker-end:url(#marker5642)"
         d="m 250.27433,587 61.36283,61.36284 H 461"
         id="path9595"
         inkscape:connector-curvature="0" />
      <path
         style="fill:none;stroke:url(#linearGradient1038);stroke-width:45;stroke-linecap:butt;stroke-linejoin:miter;stroke-miterlimit:4;stroke-dasharray:none;stroke-opacity:1"
         d="M -11,587 166,736 H 366"
         id="path9597"
         inkscape:connector-curvature="0"
         sodipodi:nodetypes="ccc" />
      <path
         sodipodi:nodetypes="cc"
         style="fill:none;stroke:url(#linearGradient1040);stroke-width:45;stroke-linecap:butt;stroke-linejoin:miter;stroke-miterlimit:4;stroke-dasharray:none;stroke-opacity:1;marker-end:url(#DotS)"
         d="M -327.19091,587 H 512"
         id="path9599"
         inkscape:connector-curvature="0" />
      <path
         style="fill:none;stroke:url(#linearGradient1042);stroke-width:45;stroke-linecap:butt;stroke-linejoin:miter;stroke-miterlimit:4;stroke-dasharray:none;stroke-opacity:1"
         d="M -12.169257,587.00569 101.7422,473.09423 h 92.51681"
         id="path9601"
         inkscape:connector-curvature="0"
         sodipodi:nodetypes="ccc" />
    </g>
    <g
       style="display:inline;stroke:url(#linearGradient5900);stroke-width:15;stroke-miterlimit:4;stroke-dasharray:none"
       id="g5119"
       transform="translate(-562.70754,20.887889)">
      <path
         inkscape:connector-curvature="0"
         id="path5104"
         d="m 194.25901,473.09423 50.34582,-43.13112 H 388"
         style="fill:none;stroke:url(#linearGradient5902);stroke-width:15;stroke-linecap:butt;stroke-linejoin:miter;stroke-miterlimit:4;stroke-dasharray:none;stroke-opacity:1;marker-end:url(#marker1010)"
         sodipodi:nodetypes="ccc" />
      <path
         inkscape:connector-curvature="0"
         id="path5106"
         d="m 194.25901,473.09423 40.32338,40.32338 H 463"
         style="fill:none;stroke:url(#linearGradient5904);stroke-width:15;stroke-linecap:butt;stroke-linejoin:miter;stroke-miterlimit:4;stroke-dasharray:none;stroke-opacity:1;marker-end:url(#marker9609)"
         sodipodi:nodetypes="ccc" />
      <path
         inkscape:connector-curvature="0"
         id="path5108"
         d="m 250.27433,587 61.36283,61.36284 H 461"
         style="fill:none;stroke:url(#linearGradient5906);stroke-width:15;stroke-linecap:butt;stroke-linejoin:miter;stroke-miterlimit:4;stroke-dasharray:none;stroke-opacity:1;marker-end:url(#marker9779)"
         sodipodi:nodetypes="ccc" />
      <path
         sodipodi:nodetypes="ccc"
         inkscape:connector-curvature="0"
         id="path5096"
         d="M -11,587 166,736 H 366"
         style="fill:none;stroke:url(#linearGradient5908);stroke-width:15;stroke-linecap:butt;stroke-linejoin:miter;stroke-miterlimit:4;stroke-dasharray:none;stroke-opacity:1;marker-end:url(#marker5694)" />
      <path
         inkscape:connector-curvature="0"
         id="path5098"
         d="M -327.19091,587 H 512"
         style="fill:none;stroke:url(#linearGradient5910);stroke-width:15;stroke-linecap:butt;stroke-linejoin:miter;stroke-miterlimit:4;stroke-dasharray:none;stroke-opacity:1;marker-end:url(#marker9691)"
         sodipodi:nodetypes="cc" />
      <path
         sodipodi:nodetypes="ccc"
         inkscape:connector-curvature="0"
         id="path5100"
         d="M -12.169257,587.00569 101.7422,473.09423 h 92.51681"
         style="fill:none;stroke:url(#linearGradient5912);stroke-width:15;stroke-linecap:butt;stroke-linejoin:miter;stroke-miterlimit:4;stroke-dasharray:none;stroke-opacity:1" />
    </g>
    <path
       style="fill:url(#linearGradient8375);fill-opacity:1;stroke:url(#linearGradient8381);stroke-width:12.80161285;stroke-miterlimit:4;stroke-dasharray:none"
       d="m -1237.8095,592.32834 c 0.86,-0.1733 4.49,-0.7108 8.0667,-1.19448 3.5768,-0.48373 6.5707,-0.94686 6.653,-1.02921 0.246,-0.24599 10.439,-57.34948 10.439,-58.48154 0,-0.98967 0.9193,-1.0422 18.0516,-1.03167 l 18.0517,0.0111 22.2773,25.71609 22.2772,25.71609 13.4959,-0.56859 c 7.984,-0.33631 13.57,-0.80076 13.6773,-1.13708 0.1,-0.31273 6.3247,-29.47969 13.8335,-64.81546 7.5087,-35.33582 13.7849,-64.82259 13.9473,-65.52619 l 0.2949,-1.27924 h 30.6178 30.6179 l 36.13777,66.37901 36.13784,66.37901 14.67927,0.36608 c 39.59052,0.98733 71.1733,6.12459 88.78132,14.44131 15.61609,7.37583 16.37164,13.68694 2.47515,20.67396 -18.36622,9.23437 -50.1691,14.66446 -92.44702,15.7847 l -13.72948,0.36377 -35.87353,66.00702 -35.87352,66.00697 -30.7327,0.14703 c -28.9103,0.13829 -30.7498,0.0877 -31.0211,-0.85284 -0.1587,-0.5499 -6.4929,-30.22816 -14.0759,-65.95167 l -13.7874,-64.95174 -1.7414,-0.26166 c -0.9578,-0.14387 -7.2423,-0.40697 -13.9655,-0.58466 l -12.224,-0.32309 -21.8623,25.25231 -21.8625,25.25228 -8.2711,0.33129 c -4.5491,0.1822 -12.602,0.40052 -17.8953,0.48521 l -9.6242,0.15394 -5.2373,-29.77669 c -3.0785,-17.50291 -5.5227,-29.95302 -5.9295,-30.20448 -0.3808,-0.2353 -2.1361,-0.59033 -3.901,-0.789 -1.7647,-0.19863 -5.1913,-0.64385 -7.6149,-0.98937 l -4.4063,-0.62825 v -14.38763 -14.38763 z"
       id="path8369"
       inkscape:connector-curvature="0" />
  </g>
</svg>
